# xmcd
#
# Track frame offsets:
#	182
#	8100
#	19225
#	29277
#	44942
#	55162
#	68307
#	79212
#	91597
#	105942
#	120767
#	135562
#	147147
#	158332
#	170000
#	180647
#
# Disc length: 2535
#
# Revision: 1
# Processed by: cddbd v1.5.1PL0 Copyright (c) Steve Scherf et al.
# Submitted via: CDex 1.51
# Normalized: r0:DSETVAR1,TDELIM( - )
#
DISCID=ba09e510
DTITLE=Various Artist - Country Greats Vol.3
DYEAR=1900
DGENRE=Country
TTITLE0=Susan Raye - I've Got a Happy Heart
TTITLE1=Don David Jr. - Cowboys on the Run
TTITLE2=Johnny Cash - Hey Porter
TTITLE3=Ray Pillow - How Do I Hide From a Memory
TTITLE4=Glenn Campbell - It's a Good Thing
TTITLE5=Kenny Rogers - Ruby, Don't Take Your Love To Town
TTITLE6=Dolly Parton - Honky Tonk Angels (It Wasn't God Who Made)
TTITLE7=Roy Acuff - I Saw The Light
TTITLE8=Tex Ritter - The Texas Rangers
TTITLE9=Jeannie C. Riley - Harper Valley P.T.A.
TTITLE10=Andy Forstman - My Tennessee Home
TTITLE11=Anne Murray - The Last Thing on My Mind
TTITLE12=Porter Wagoner - Enough to Make a Grown Man Cry
TTITLE13=Ben Findon and Glenn Campbell - Mr. Mac
TTITLE14=Don Gibson - Oh Lonesome Me
TTITLE15=Ned Miller - From A Jack To A King
EXTD=
EXTT0=
EXTT1=
EXTT2=
EXTT3=
EXTT4=
EXTT5=
EXTT6=
EXTT7=
EXTT8=
EXTT9=
EXTT10=
EXTT11=
EXTT12=
EXTT13=
EXTT14=
EXTT15=
PLAYORDER=
